<?xml version="1.0" encoding="iso-8859-1"?>
<!-- Uploaded to: SVG Repo, www.svgrepo.com, Generator: SVG Repo Mixer Tools -->
<svg height="800px" width="800px" version="1.1" id="Layer_1" xmlns="http://www.w3.org/2000/svg" xmlns:xlink="http://www.w3.org/1999/xlink" 
	 viewBox="0 0 488.369 488.369" xml:space="preserve">
<path style="fill:#9CD8E2;" d="M163.426,445.861c-41.055,41.031-101.4,47.254-134.774,13.855
	c-33.39-33.375-27.175-93.72,13.856-134.774c41.086-41.078,55.729-1.591,89.12,31.799
	C165.025,390.132,204.457,404.775,163.426,445.861z"/>
<path style="fill:#80C1D1;" d="M156.25,453.022c-41.055,41.031-101.384,47.254-134.774,13.871
	c-33.375-33.39-27.168-93.728,13.871-134.774c41.039-41.039,55.737-1.599,89.112,31.783
	C157.857,397.292,197.297,411.943,156.25,453.022z"/>
<path style="fill:#6D4417;" d="M135.487,377.805c-3.938,3.923-10.303,3.938-14.273,0.008l-10.657-10.665
	c-3.931-3.97-3.931-10.335,0-14.265L393.543,69.912c3.915-3.946,10.279-3.946,14.234,0l10.681,10.673
	c3.938,3.954,3.938,10.319,0,14.234L135.487,377.805z"/>
<path style="fill:#895D24;" d="M406.689,69.203c-3.931-3.009-9.539-2.907-13.139,0.717L110.564,352.89
	c-3.6,3.616-3.734,9.255-0.701,13.17c3.946,3.025,9.531,2.907,13.154-0.693L406.004,82.397
	C409.612,78.75,409.745,73.141,406.689,69.203z"/>
<path style="fill:#80C1D1;" d="M120.599,392.684c-3.931,3.938-10.295,3.938-14.234,0.016l-10.673-10.697
	c-3.946-3.938-3.946-10.303,0-14.234l55.154-55.17c3.946-3.938,10.319-3.938,14.241,0.008l10.689,10.665
	c3.915,3.946,3.931,10.319-0.016,14.249L120.599,392.684z"/>
<path style="fill:#9CD8E2;" d="M164.379,312.111c-3.97-3.308-9.807-3.23-13.533,0.488l-55.154,55.17
	c-3.742,3.726-3.82,9.563-0.488,13.54c3.946,3.324,9.799,3.253,13.54-0.48l58.935-58.951
	C171.413,318.137,167.711,316.113,164.379,312.111z"/>
<g>
	<path style="fill:#6D4417;" d="M403.846,84.508c-24.678-24.718-32.752-53.855-18.786-67.844l10.744,10.744
		c-5.734,5.758-1.355,26.167,18.802,46.332c20.189,20.181,40.613,24.56,46.356,18.826l10.744,10.744
		C457.716,117.276,428.579,109.202,403.846,84.508z"/>
	<path style="fill:#6D4417;" d="M479.417,106.327c-2.962,2.985-7.775,2.985-10.744,0.008l-86.646-86.638
		c-2.985-2.962-2.985-7.782,0.016-10.736l6.711-6.719c2.97-2.977,7.767-2.977,10.736,0l86.638,86.638
		c2.977,2.97,2.977,7.767,0,10.736L479.417,106.327z"/>
</g>
<path style="fill:#845425;" d="M486.136,88.871L399.498,2.233c-2.97-2.977-7.767-2.977-10.736,0c-2.977,2.954-2.977,7.767,0,10.76
	l86.615,86.615c2.993,2.977,7.806,2.977,10.76,0C489.113,96.646,489.113,91.849,486.136,88.871z"/>
</svg>